PathFileType	3	(X/Y/Z)	C:\Users\koon_\Desktop\
DataRate	CameraRate	NumFrames	NumMarkers	Units	OrigDataRate	OrigDataStartFrame	OrigNumFrames
100.0	100.0	14	27	mm	100.0	1	5041	
Frame#	Time	get:LFHD			get:RFHD			get:LBHD			get:RBHD			get:C7			get:T10			get:CLAV			get:STRN			get:RBAK			get:LSHO			get:LUPA			get:LELB			get:LFRA			get:LWRA			get:LWRB			get:LFIN			get:RSHO			get:RUPA			get:RELB			get:RFRA			get:RWRA			get:RWRB			get:RFIN			get:LASI			get:RASI			get:LPSI			get:RPSI			
		X1	Y1	Z1	X2	Y2	Z2	X3	Y3	Z3	X4	Y4	Z4	X5	Y5	Z5	X6	Y6	Z6	X7	Y7	Z7	X8	Y8	Z8	X9	Y9	Z9	X10	Y10	Z10	X11	Y11	Z11	X12	Y12	Z12	X13	Y13	Z13	X14	Y14	Z14	X15	Y15	Z15	X16	Y16	Z16	X17	Y17	Z17	X18	Y18	Z18	X19	Y19	Z19	X20	Y20	Z20	X21	Y21	Z21	X22	Y22	Z22	X23	Y23	Z23	X24	Y24	Z24	X25	Y25	Z25	X26	Y26	Z26	X27	Y27	Z27	
1	0	46.625507	1535.932	-27.963268	-98.562317	1535.472	-53.912582	67.683273	1524.2734	-163.57047	-80.781944	1517.2899	-185.50128	-11.20842	1332.3054	-220.65576	1.9614948	1122.2179	-264.21268	-6.8202457	1233.0602	-31.912081	-6.8351927	1076.5266	0.82965082	-102.59605	1260.9188	-249.60129	154.38084	1329.7288	-142.68619	196.24052	1115.9128	-104.54733	236.46057	1004.7906	-158.15459	215.13974	952.22968	-85.413147	184.18152	784.56799	-51.800968	254.63077	787.88611	-79.036797	246.37502	720.7821	-39.173317	-149.59047	1325.7538	-122.10044	-210.21529	1203.2311	-108.73943	-254.54968	992.33099	-161.12473	-209.45042	866.0542	-70.121613	-199.50235	769.6239	-51.009827	-266.37271	780.24799	-81.60714	-245.18639	708.82172	-27.870855	133.015	888.20392	-63.719398	-161.75032	903.44971	-75.343407	46.940411	922.93945	-251.69795	-40.767872	921.6402	-259.58472
2	0.01	46.633518	1535.9268	-27.873676	-98.546638	1535.4895	-53.896706	67.714127	1524.3131	-163.49481	-80.771912	1517.2898	-185.44739	-11.168172	1332.2618	-220.53586	2.0230093	1122.226	-264.17572	-6.8522196	1233.0588	-31.823896	-6.8858709	1076.5095	0.87472683	-102.56674	1260.8837	-249.58882	154.4063	1329.7141	-142.60593	196.27214	1115.9087	-104.48239	236.53603	1004.8125	-158.06062	215.1936	952.23492	-85.334404	184.27164	784.54962	-51.704216	254.70409	787.89142	-78.899673	246.483	720.77563	-39.034504	-149.56287	1325.7664	-122.09813	-210.17632	1203.2288	-108.73623	-254.49434	992.32941	-161.09563	-209.43646	866.08087	-70.077637	-199.4725	769.64996	-50.904037	-266.34744	780.28314	-81.488617	-245.1524	708.8797	-27.734827	132.99152	888.15839	-63.728622	-161.74426	903.47223	-75.342392	46.962292	922.95721	-251.69844	-40.740204	921.64252	-259.58743
3	0.02	46.640358	1535.8822	-27.779804	-98.540604	1535.4749	-53.843922	67.728752	1524.3129	-163.42375	-80.754456	1517.3499	-185.444	-11.148566	1332.2567	-220.47548	2.0309353	1122.2562	-264.22437	-7.4754105	1232.9347	-31.671484	-6.9275851	1076.5111	0.97534132	-102.49807	1260.8732	-249.5528	154.43555	1329.699	-142.53232	196.27357	1115.8822	-104.38442	236.59227	1004.7635	-157.94896	215.2623	952.22803	-85.250816	184.35811	784.53662	-51.623337	254.78294	787.86853	-78.807747	246.57849	720.77765	-38.938122	-149.55646	1325.7706	-122.14428	-210.16299	1203.2432	-108.75103	-254.51598	992.34277	-161.06918	-209.40974	866.09381	-69.573357	-199.45918	769.73322	-50.807796	-266.31531	780.3075	-81.360283	-245.15401	708.96368	-27.577696	132.96631	888.14777	-63.695557	-161.77255	903.46149	-75.384987	46.936932	922.96313	-251.65083	-40.740208	921.64252	-259.5874
4	0.03	46.648296	1535.8778	-27.689892	-98.462029	1535.1038	-53.792362	67.791237	1524.351	-163.32613	-80.702087	1517.3722	-185.40594	-11.101249	1332.2411	-220.45287	2.0755939	1122.2343	-264.15054	-7.4793653	1232.8932	-31.615973	-6.9411197	1076.4934	0.99084491	-102.45226	1260.8676	-249.52344	154.45198	1329.6692	-142.5217	196.31133	1115.8689	-104.31621	236.64807	1004.7646	-157.8434	215.27821	952.20435	-85.153	184.43814	784.49969	-51.510647	254.86034	787.88434	-78.693939	246.66219	720.75873	-38.844986	-149.55902	1325.7832	-122.16262	-210.14558	1203.2582	-108.7494	-254.4902	992.34137	-161.04129	-209.41794	866.17407	-69.989212	-199.4819	769.7608	-50.682678	-266.32581	780.35535	-81.267639	-245.15933	709.01666	-27.404972	132.95155	888.16467	-63.626572	-161.77255	903.46149	-75.384987	46.992928	922.98364	-251.62953	-40.740208	921.64252	-259.5874
5	0.04	46.649387	1535.8712	-27.621023	-98.500664	1535.3977	-53.779514	67.806679	1524.3383	-163.24913	-80.699097	1517.3795	-185.34132	-11.040512	1332.2645	-220.5047	2.0717735	1122.2222	-264.11249	-7.4640493	1232.9148	-31.672522	-6.9645085	1076.4781	1.0675718	-102.42287	1260.8551	-249.545	154.47826	1329.6331	-142.46286	196.33623	1115.8557	-104.22849	236.66629	1004.7513	-157.7547	215.32666	952.19281	-85.087067	184.49678	784.50336	-51.38789	254.91628	787.8468	-78.634171	246.73041	720.74463	-38.736439	-149.5061	1325.7844	-122.17444	-210.13222	1203.2678	-108.78404	-254.46754	992.33423	-160.99989	-209.42459	866.19672	-69.974236	-199.42764	769.80853	-50.611629	-266.31183	780.38812	-81.161827	-245.13861	709.05762	-27.28661	132.93515	888.15942	-63.632584	-161.76697	903.46527	-75.376274	46.971718	922.97791	-251.60268	-40.714008	921.65521	-259.55811
6	0.05	46.644054	1535.844	-27.534096	-98.474731	1535.4004	-53.711395	67.865524	1524.394	-163.15273	-80.646759	1517.3857	-185.26065	-11.01754	1332.2201	-220.42531	2.1188653	1122.1716	-264.01111	-7.4429717	1232.8993	-31.654697	-6.9839907	1076.4618	1.123517	-102.36823	1260.8929	-249.53319	154.51874	1329.6172	-142.41869	196.32858	1115.8193	-104.15495	236.69951	1004.6842	-157.68771	215.37813	952.16656	-84.989235	184.52966	784.48114	-51.280823	254.99025	787.85187	-78.498634	246.80417	720.72229	-38.656799	-149.49048	1325.7858	-122.16383	-210.12265	1203.2781	-108.81512	-254.45985	992.33112	-160.98642	-209.46326	866.21417	-69.477188	-199.49742	769.89008	-50.502041	-266.29324	780.41309	-81.066818	-245.18851	709.09491	-27.206396	132.93683	888.14075	-63.631027	-161.78813	903.46887	-75.367119	46.973236	922.9787	-251.60193	-40.715343	921.6499	-259.54608
7	0.06	46.679832	1535.833	-27.472986	-98.421883	1535.3722	-53.670544	67.900566	1524.4063	-163.07953	-80.601173	1517.417	-185.22726	-10.93516	1332.2589	-220.45749	2.1474161	1122.1924	-264.02481	-7.4375067	1232.8949	-31.698439	-6.9725633	1076.4426	1.1244589	-102.31519	1260.9075	-249.57288	154.54283	1329.5938	-142.41635	196.3568	1115.8042	-104.09038	236.71394	1004.6561	-157.59203	215.39018	952.15491	-84.9002	184.58476	784.47284	-51.205681	254.99832	787.81122	-78.401947	246.83952	720.70233	-38.553009	-149.44566	1325.7671	-122.20776	-210.08092	1203.2931	-108.81975	-254.44737	992.35913	-160.97269	-209.44975	866.25909	-69.555557	-199.53883	769.88269	-48.081409	-266.30356	780.44495	-80.994041	-245.21565	709.13245	-27.123619	132.93683	888.02502	-63.73354	-161.81244	903.46185	-75.401154	46.974663	922.97943	-251.60124	-40.721127	921.64227	-259.53458
8	0.07	46.676601	1535.824	-27.439604	-98.407341	1535.3528	-53.628254	67.945114	1524.4094	-163.03754	-80.530403	1517.4193	-185.23448	-10.921556	1332.204	-220.3416	2.2010016	1122.2152	-264.09375	-7.4324884	1232.877	-31.678673	-6.9683294	1076.424	1.0614231	-102.2844	1260.8912	-249.56633	154.58253	1329.5553	-142.39096	196.37202	1115.7786	-104.00763	236.70865	1004.5966	-157.53825	215.38133	952.12598	-84.829079	184.60127	784.42084	-51.068111	255.0224	787.79822	-78.309982	246.88417	720.71161	-38.448799	-149.39368	1325.7726	-122.16255	-210.07236	1203.2886	-108.84988	-254.44209	992.34314	-160.96654	-209.51141	866.28711	-69.442924	-199.58887	769.84656	-50.437149	-266.30521	780.48242	-80.96978	-245.27744	709.17255	-27.042744	132.93605	888.12524	-63.548347	-161.8098	903.46503	-75.393692	46.997547	922.97937	-251.57869	-40.726116	921.61597	-259.51523
9	0.08	46.673653	1535.8069	-27.359184	-98.330124	1535.0481	-53.544365	67.989464	1524.4353	-162.95775	-80.504143	1517.4294	-185.12988	-10.867608	1332.2218	-220.31453	2.2072017	1122.1708	-264.02792	-7.393549	1232.8618	-31.713762	-6.9848785	1076.4119	1.1785344	-102.22107	1260.8744	-249.56487	154.61383	1329.517	-142.34364	196.37022	1115.7327	-104.00713	236.73181	1004.5814	-157.47562	215.41145	952.08246	-84.760872	184.60208	784.41333	-50.973957	255.04094	787.78369	-78.223419	246.87874	720.69019	-38.327915	-149.3595	1325.7561	-122.11758	-210.0593	1203.2834	-108.86221	-254.43327	992.33661	-160.91682	-209.49146	866.31836	-69.739861	-199.61932	769.90021	-47.980129	-266.33905	780.50189	-80.963028	-245.32422	709.23047	-26.942768	132.9099	888.00928	-63.707767	-161.80818	903.48907	-75.385368	46.997581	922.97235	-251.53542	-40.704872	921.68341	-259.56027
10	0.09	46.668777	1535.8105	-27.287197	-98.402344	1535.252	-53.097889	68.025787	1524.4352	-162.88008	-80.43058	1517.449	-185.13513	-10.802262	1332.2286	-220.39224	2.2126188	1122.1127	-263.90332	-7.3637676	1232.8254	-31.65906	-7.0083723	1076.4117	1.1766262	-102.16256	1260.9077	-249.5901	154.64711	1329.4658	-142.34201	196.35876	1115.7023	-103.96497	236.7093	1004.5109	-157.40733	215.43636	952.07086	-84.672714	184.62561	784.38989	-50.877174	255.0368	787.75415	-78.128899	246.89236	720.64758	-38.23444	-149.32652	1325.7607	-122.18279	-210.00842	1203.2996	-108.83538	-254.42686	992.34393	-160.92538	-209.53716	866.32849	-69.571144	-199.623	769.96033	-47.841888	-266.38312	780.53412	-80.873802	-245.40515	709.24384	-26.916121	132.9333	888.01227	-63.705296	-161.80266	903.47144	-75.378708	46.998959	922.97278	-251.53452	-40.678802	921.68347	-259.55753
11	0.1	46.665562	1535.8187	-27.211563	-98.370743	1535.2273	-53.10545	68.103729	1524.4613	-162.79388	-80.400551	1517.4465	-185.12683	-10.762082	1332.1946	-220.3284	2.2514534	1122.1316	-263.99802	-7.3408341	1232.8083	-31.641264	-7.0125103	1076.376	1.2069788	-102.11563	1260.8273	-249.5555	154.71165	1329.4226	-142.31093	196.34819	1115.6665	-103.92255	236.71721	1004.4782	-157.31934	215.408	952.03296	-84.571297	184.5752	784.36078	-50.781628	255.0107	787.69983	-78.059029	246.87616	720.62238	-38.11832	-149.27747	1325.7585	-122.20083	-209.97383	1203.3033	-108.88832	-254.41951	992.34839	-160.92642	-209.5992	866.31818	-69.341957	-199.67714	769.95398	-47.914913	-266.45374	780.55176	-80.91877	-245.47163	709.26697	-26.902884	132.91821	887.9859	-63.657715	-161.8009	903.49481	-75.370956	47.000233	922.97339	-251.53435	-40.679695	921.68146	-259.552
12	0.11	46.692799	1535.8123	-27.184324	-98.361176	1535.2208	-53.11726	68.12439	1524.4756	-162.77315	-80.353394	1517.4355	-185.07861	-10.735296	1332.1963	-220.32903	2.2515574	1122.1307	-263.99594	-7.3358111	1232.8	-31.68701	-6.9991064	1076.3773	1.2426656	-102.10233	1260.7958	-249.44841	154.73767	1329.3651	-142.31479	196.35133	1115.6045	-103.94888	236.71666	1004.3933	-157.30518	215.373	951.97363	-84.544922	184.59239	784.36176	-50.638882	255.00014	787.66113	-77.90377	246.84991	720.59503	-38.025597	-149.23039	1325.7444	-122.14769	-209.94701	1203.29	-108.86366	-254.40681	992.34949	-160.92789	-209.62442	866.33887	-68.974655	-199.71407	769.96948	-47.855339	-266.52731	780.55359	-80.930687	-245.54747	709.30237	-26.849981	132.90385	887.992	-63.630104	-161.82755	903.4718	-75.367813	47.023521	922.97278	-251.51109	-40.668842	921.6507	-259.45456
13	0.12	46.674606	1535.8051	-27.119833	-98.348778	1535.1873	-53.121914	68.170212	1524.4867	-162.66026	-80.275528	1517.4426	-185.05493	-10.661888	1332.1659	-220.3188	2.2816112	1122.0969	-263.94055	-7.2908425	1232.7456	-31.670071	-6.9762502	1076.3811	1.2996523	-102.03658	1260.8555	-249.5901	154.7935	1329.3279	-142.31255	196.34856	1115.527	-103.93887	236.71815	1004.3225	-157.26138	215.39258	951.95679	-84.461075	184.5274	784.31488	-50.535019	254.94557	787.61865	-77.817719	246.80534	720.55206	-37.88736	-149.21169	1325.7117	-122.15237	-209.91965	1203.2854	-108.88262	-254.40195	992.34796	-160.88188	-209.66754	866.37805	-68.52459	-199.77092	769.96625	-47.858379	-266.55499	780.57806	-80.944679	-245.66927	709.27112	-26.920813	132.91585	887.96368	-63.619846	-161.80101	903.47388	-75.362152	47.021923	922.96472	-251.46716	-40.666683	921.65863	-259.46756
14	0.13	46.681511	1535.8008	-27.036587	-98.327972	1535.1826	-53.120346	68.220222	1524.5256	-162.636	-80.231728	1517.4163	-184.93364	-10.660262	1332.1682	-220.3219	2.3008702	1122.0342	-263.91028	-7.2406464	1232.7494	-31.720829	-6.9706416	1076.3462	1.3008646	-101.99483	1260.8363	-249.5052	154.85414	1329.2865	-142.32579	196.35854	1115.478	-103.98859	236.68286	1004.2299	-157.23404	215.34586	951.91589	-84.394455	184.49602	784.29712	-50.461121	254.89163	787.60132	-77.715736	246.75209	720.5343	-37.771404	-149.13588	1325.6953	-122.13863	-209.84889	1203.2911	-108.90977	-254.39688	992.33911	-160.88313	-209.72359	866.35742	-68.765587	-199.88336	769.96802	-47.819397	-266.60855	780.57495	-80.941177	-245.73254	709.26813	-26.880316	132.87474	887.92725	-63.599377	-161.86316	903.48663	-75.331177	47.02494	922.96057	-251.44095	-40.664398	921.66205	-259.47198
